<?xml version="1.0" encoding="UTF-8" standalone="no"?><!-- Generator: Gravit.io --><svg xmlns="http://www.w3.org/2000/svg" xmlns:xlink="http://www.w3.org/1999/xlink" style="isolation:isolate" viewBox="0 0 32 32" width="32pt" height="32pt"><defs><clipPath id="_clipPath_phWiNGQWhi5CwZQG2yIiHuGE0y6ddPA6"><rect width="32" height="32"/></clipPath></defs><g clip-path="url(#_clipPath_phWiNGQWhi5CwZQG2yIiHuGE0y6ddPA6)"><ellipse vector-effect="non-scaling-stroke" cx="15.998331767995953" cy="16" rx="15.998331767995953" ry="15.999999999999998" fill="rgb(35,43,43)"/><clipPath id="_clipPath_a2dTYxn5nIl6KRLdwPATjiy96zea63vt"><ellipse vector-effect="non-scaling-stroke" cx="15.998331767995953" cy="16" rx="15.998331767995953" ry="15.999999999999998" fill="rgb(35,43,43)"/></clipPath><g clip-path="url(#_clipPath_a2dTYxn5nIl6KRLdwPATjiy96zea63vt)"><g><path d=" M 15.746 16.084 L 15.863 14.846 L 16.725 5.763 C 16.822 4.756 17.269 3.841 17.962 3.236 C 18.654 2.631 19.529 2.39 20.378 2.57 L 20.378 2.57 L 20.378 2.57 L 20.378 2.57 C 21.227 2.752 21.973 3.34 22.439 4.193 C 22.905 5.046 23.049 6.087 22.836 7.069 L 20.829 16.406 L 20.646 17.261 C 23.698 18.71 25.713 21.407 25.668 24.944 L 25.668 29.297 L 25.668 29.297 L 25.668 29.297 C 25.668 29.297 25.668 31.751 25.668 31.751 C 24.312 31.722 13.865 32.311 12.648 32.119 Q 6.434 31.14 4.699 29.263 L 4.699 24.944 C 4.654 21.4 6.678 18.699 9.741 17.252 L 9.557 16.459 L 7.533 7.091 C 7.242 5.759 7.606 4.347 8.477 3.432 C 9.348 2.517 10.58 2.253 11.668 2.747 C 12.756 3.242 13.519 4.412 13.644 5.78 L 13.644 5.78 L 13.644 5.78 L 14.512 14.899 L 14.622 16.084 C 14.808 16.075 14.995 16.07 15.184 16.067 C 15.372 16.07 15.56 16.075 15.746 16.084 Z " fill="rgb(255,255,255)"/><path d=" M 19.074 23.835 C 18.459 23.835 17.962 23.151 17.962 22.307 C 17.962 21.464 18.459 20.78 19.074 20.78 C 19.688 20.78 20.186 21.464 20.186 22.307 C 20.186 23.151 19.688 23.835 19.074 23.835 L 19.074 23.835 L 19.074 23.835 Z  M 19.908 22.77 C 19.908 23.164 19.659 23.483 19.352 23.483 C 19.045 23.483 18.795 23.164 18.795 22.77 C 18.795 22.377 19.045 22.058 19.352 22.058 C 19.659 22.058 19.908 22.377 19.908 22.77 Z " fill-rule="evenodd" fill="rgb(44,62,80)"/><path d=" M 12.532 23.835 C 11.918 23.835 11.42 23.151 11.42 22.307 C 11.42 21.464 11.918 20.78 12.532 20.78 C 13.147 20.78 13.644 21.464 13.644 22.307 C 13.644 23.151 13.147 23.835 12.532 23.835 L 12.532 23.835 L 12.532 23.835 Z  M 13.366 22.77 C 13.366 23.164 13.117 23.483 12.81 23.483 C 12.503 23.483 12.254 23.164 12.254 22.77 C 12.254 22.377 12.503 22.058 12.81 22.058 C 13.117 22.058 13.366 22.377 13.366 22.77 Z " fill-rule="evenodd" fill="rgb(44,62,80)"/></g><g><path d=" M 29.052 23.232 C 28.982 23.446 28.899 23.653 28.804 23.849 L 28.489 24.493 L 27.584 26.331 L 26.977 27.558 L 26.091 29.101 C 25.935 29.177 21.004 32.193 21.004 32.193 L 23.012 24.902 L 23.395 23.517 L 23.963 21.451 L 24.159 20.737 C 24.222 20.516 24.299 20.303 24.39 20.1 C 25.039 18.627 26.256 17.838 27.39 18.154 C 27.459 18.174 27.527 18.2 27.594 18.233 C 27.725 18.278 27.851 18.343 27.969 18.427 C 29.203 19.253 29.677 21.357 29.052 23.232 L 29.052 23.232 Z " fill="rgb(247,190,140)"/><path d=" M 26.463 24.023 C 26.242 23.964 26.031 24.017 25.952 24.15 L 25.952 24.15 C 25.858 24.308 25.982 24.525 26.229 24.635 L 28.009 25.428 L 27.577 26.306 L 26.98 27.513 L 26.466 28.551 C 26.313 28.625 21.317 31.477 21.317 31.477 L 22.616 26.582 Q 24.317 27.357 24.354 27.368 C 24.574 27.429 24.786 27.379 24.867 27.247 L 24.867 27.247 C 24.961 27.09 24.839 26.872 24.593 26.759 L 22.795 25.933 L 23.891 21.956 Q 25.615 22.742 25.652 22.752 C 25.872 22.813 26.084 22.763 26.164 22.631 L 26.164 22.631 C 26.259 22.474 26.137 22.256 25.891 22.143 L 24.069 21.306 L 24.208 20.802 C 24.27 20.585 24.346 20.375 24.435 20.176 C 25.074 18.727 26.271 17.95 27.386 18.261 C 27.455 18.281 27.522 18.307 27.587 18.339 C 27.716 18.383 27.839 18.447 27.956 18.53 C 29.17 19.342 29.636 21.413 29.021 23.257 L 29.021 23.257 C 28.952 23.468 28.871 23.671 28.777 23.865 L 28.467 24.498 L 28.304 24.83 Q 26.5 24.033 26.463 24.023 Z  M 23.397 21.697 L 23.397 21.697 L 23.694 20.575 L 23.931 19.923 C 23.946 19.908 23.947 19.892 23.948 19.876 C 24.258 19.165 24.724 18.55 25.288 18.108 C 25.822 17.696 26.463 17.507 27.089 17.546 C 27.102 17.547 27.129 17.55 27.143 17.551 L 27.521 17.617 L 27.786 17.723 L 28.182 17.922 C 28.194 17.939 28.207 17.957 28.234 17.959 C 28.793 18.354 29.243 18.951 29.507 19.663 C 29.769 20.408 29.89 21.207 29.82 22.004 C 29.785 22.51 29.68 23.025 29.525 23.487 C 29.524 23.503 29.522 23.52 29.508 23.535 L 29.258 24.169 L 28.939 24.829 L 28.812 25.081 L 28.047 26.637 L 27.443 27.846 L 26.933 28.884 C 26.871 28.993 26.781 29.1 26.682 29.157 C 24.953 30.053 23.245 31.033 21.562 32.065 C 21.562 32.065 21.548 32.064 21.548 32.064 L 20.423 32.719 L 22.097 26.388 C 22.099 26.371 22.114 26.34 22.116 26.324 L 22.116 26.324 L 23.379 21.761 C 23.38 21.744 23.382 21.712 23.397 21.697 Z " fill-rule="evenodd" fill="rgb(229,126,37)"/><path d=" M 27.863 18.53 C 27.718 18.492 27.597 18.406 27.57 18.261 L 27.09 15.658 C 27.057 15.478 27.176 15.306 27.356 15.273 C 27.535 15.24 27.708 15.358 27.741 15.538 L 28.011 17.007 L 28.734 15.177 C 28.801 15.007 28.994 14.923 29.164 14.99 C 29.334 15.057 29.418 15.249 29.351 15.42 L 28.592 17.339 L 29.809 16.53 C 29.961 16.432 30.164 16.474 30.264 16.624 C 30.364 16.775 30.325 16.978 30.176 17.08 L 28.217 18.398 Q 28.071 18.511 27.863 18.53 Z " fill="rgb(113,194,133)"/></g></g></g></svg>