<?xml version="1.0" encoding="UTF-8" standalone="no"?><!-- Generator: Gravit.io --><svg xmlns="http://www.w3.org/2000/svg" xmlns:xlink="http://www.w3.org/1999/xlink" style="isolation:isolate" viewBox="0 0 32 32" width="32pt" height="32pt"><defs><clipPath id="_clipPath_crbQI6YvxIEZJYD85MfNiJAwfLCx4irN"><rect width="32" height="32"/></clipPath></defs><g clip-path="url(#_clipPath_crbQI6YvxIEZJYD85MfNiJAwfLCx4irN)"><ellipse vector-effect="non-scaling-stroke" cx="15.998331767995953" cy="16" rx="15.998331767995953" ry="15.999999999999998" fill="rgb(35,43,43)"/><clipPath id="_clipPath_ogMeg46LrKH9j0ZauJmbvcHs4xa8dKK3"><ellipse vector-effect="non-scaling-stroke" cx="15.998331767995953" cy="16" rx="15.998331767995953" ry="15.999999999999998" fill="rgb(35,43,43)"/></clipPath><g clip-path="url(#_clipPath_ogMeg46LrKH9j0ZauJmbvcHs4xa8dKK3)"><g><path d=" M 16.219 18.514 L 16.31 17.463 L 16.979 9.754 C 17.055 8.899 17.403 8.122 17.941 7.608 C 18.479 7.095 19.159 6.89 19.819 7.043 L 19.819 7.043 L 19.819 7.043 L 19.819 7.043 C 20.478 7.198 21.058 7.697 21.42 8.421 C 21.782 9.144 21.894 10.029 21.729 10.862 L 20.169 18.788 L 20.027 19.513 C 22.399 20.743 23.965 23.033 23.93 26.035 L 23.93 29.729 L 23.93 29.729 L 23.93 29.729 C 23.93 29.729 23.93 31.813 23.93 31.813 C 22.875 31.788 14.757 32.288 13.811 32.125 Q 8.982 31.294 7.634 29.7 L 7.634 26.035 C 7.599 23.026 9.172 20.734 11.552 19.505 L 11.409 18.833 L 9.836 10.88 C 9.61 9.75 9.893 8.551 10.569 7.775 C 11.246 6.998 12.204 6.774 13.05 7.194 C 13.895 7.613 14.488 8.607 14.585 9.767 L 14.585 9.767 L 14.585 9.767 L 15.259 17.508 L 15.345 18.514 C 15.49 18.506 15.635 18.502 15.782 18.5 C 15.928 18.502 16.074 18.506 16.219 18.514 Z " fill="rgb(255,255,255)"/><path d=" M 18.805 25.093 C 18.327 25.093 17.941 24.513 17.941 23.797 C 17.941 23.08 18.327 22.5 18.805 22.5 C 19.282 22.5 19.669 23.08 19.669 23.797 C 19.669 24.513 19.282 25.093 18.805 25.093 L 18.805 25.093 L 18.805 25.093 Z  M 19.453 24.189 C 19.453 24.523 19.259 24.794 19.021 24.794 C 18.782 24.794 18.589 24.523 18.589 24.189 C 18.589 23.856 18.782 23.585 19.021 23.585 C 19.259 23.585 19.453 23.856 19.453 24.189 Z " fill-rule="evenodd" fill="rgb(44,62,80)"/><path d=" M 13.721 25.093 C 13.244 25.093 12.857 24.513 12.857 23.797 C 12.857 23.08 13.244 22.5 13.721 22.5 C 14.199 22.5 14.585 23.08 14.585 23.797 C 14.585 24.513 14.199 25.093 13.721 25.093 L 13.721 25.093 L 13.721 25.093 Z  M 14.369 24.189 C 14.369 24.523 14.176 24.794 13.937 24.794 C 13.699 24.794 13.505 24.523 13.505 24.189 C 13.505 23.856 13.699 23.585 13.937 23.585 C 14.176 23.585 14.369 23.856 14.369 24.189 Z " fill-rule="evenodd" fill="rgb(44,62,80)"/></g><g><path d=" M 27.05 25.68 C 27.01 25.815 26.96 25.945 26.901 26.07 L 26.703 26.479 L 26.135 27.649 L 25.754 28.429 L 25.185 29.418 C 25.074 29.473 21.618 31.578 21.618 31.578 L 22.713 27.025 L 22.923 26.159 L 23.232 24.869 L 23.339 24.424 C 23.373 24.286 23.419 24.151 23.475 24.023 C 23.875 23.09 24.725 22.543 25.572 22.674 C 25.624 22.682 25.675 22.695 25.725 22.712 C 25.824 22.732 25.919 22.764 26.01 22.809 C 26.956 23.246 27.412 24.503 27.05 25.68 L 27.05 25.68 Z " fill="rgb(247,190,140)"/><path d=" M 25.195 26.302 C 25.031 26.278 24.878 26.322 24.827 26.407 L 24.827 26.407 C 24.767 26.509 24.869 26.634 25.055 26.688 L 26.4 27.075 L 26.129 27.634 L 25.754 28.402 L 25.431 29.063 C 25.322 29.116 21.81 31.125 21.81 31.125 L 22.51 28.07 Q 23.795 28.451 23.823 28.455 C 23.988 28.481 24.14 28.439 24.192 28.354 L 24.192 28.354 C 24.254 28.253 24.153 28.127 23.967 28.071 L 22.608 27.665 L 23.205 25.181 Q 24.508 25.567 24.536 25.571 C 24.7 25.597 24.853 25.555 24.905 25.47 L 24.905 25.47 C 24.966 25.369 24.866 25.243 24.68 25.187 L 23.302 24.775 L 23.378 24.461 C 23.412 24.325 23.457 24.193 23.512 24.066 C 23.905 23.149 24.742 22.611 25.575 22.74 C 25.626 22.748 25.676 22.76 25.726 22.777 C 25.822 22.796 25.916 22.829 26.006 22.873 C 26.937 23.302 27.385 24.539 27.029 25.697 L 27.029 25.697 C 26.99 25.829 26.94 25.958 26.882 26.081 L 26.688 26.483 L 26.585 26.695 Q 25.223 26.306 25.195 26.302 Z  M 22.83 25.05 L 22.83 25.05 L 22.99 24.35 L 23.13 23.94 C 23.14 23.93 23.14 23.92 23.14 23.91 C 23.33 23.46 23.64 23.06 24.03 22.76 C 24.4 22.48 24.86 22.33 25.32 22.32 C 25.33 22.32 25.35 22.32 25.36 22.32 L 25.64 22.34 L 25.84 22.39 L 26.14 22.49 C 26.15 22.5 26.16 22.51 26.18 22.51 C 26.61 22.72 26.97 23.06 27.2 23.48 C 27.43 23.92 27.56 24.4 27.55 24.89 C 27.55 25.2 27.5 25.52 27.41 25.81 C 27.41 25.82 27.41 25.83 27.4 25.84 L 27.25 26.24 L 27.05 26.66 L 26.97 26.82 L 26.49 27.81 L 26.11 28.58 L 25.79 29.24 C 25.75 29.31 25.69 29.38 25.62 29.42 C 24.4 30.06 23.2 30.75 22.02 31.47 C 22.02 31.47 22.01 31.47 22.01 31.47 L 21.22 31.93 L 22.12 27.98 C 22.12 27.97 22.13 27.95 22.13 27.94 L 22.13 27.94 L 22.82 25.09 C 22.82 25.08 22.82 25.06 22.83 25.05 Z " fill-rule="evenodd" fill="rgb(229,126,37)"/><path d=" M 26.089 22.95 C 26.01 22.935 25.943 22.893 25.923 22.817 L 25.572 21.45 C 25.548 21.355 25.605 21.259 25.699 21.235 C 25.793 21.211 25.89 21.268 25.914 21.362 L 26.112 22.134 L 26.429 21.133 C 26.459 21.04 26.558 20.988 26.651 21.018 C 26.744 21.047 26.796 21.147 26.766 21.24 L 26.433 22.289 L 27.051 21.814 C 27.128 21.756 27.238 21.771 27.296 21.847 C 27.355 21.924 27.342 22.033 27.266 22.093 L 26.273 22.867 Q 26.199 22.932 26.089 22.95 Z " fill="rgb(113,194,133)"/></g></g></g></svg>