<?xml version="1.0" encoding="UTF-8" standalone="no"?><!-- Generator: Gravit.io --><svg xmlns="http://www.w3.org/2000/svg" xmlns:xlink="http://www.w3.org/1999/xlink" style="isolation:isolate" viewBox="0 0 512 512" width="512pt" height="512pt"><defs><clipPath id="_clipPath_VvBRB9tguSipnVBvznUXs68oOy4QWfMG"><rect width="512" height="512"/></clipPath></defs><g clip-path="url(#_clipPath_VvBRB9tguSipnVBvznUXs68oOy4QWfMG)"><circle vector-effect="non-scaling-stroke" cx="256" cy="256" r="256" fill="rgb(35,43,43)"/><clipPath id="_clipPath_smJLvlD3Bj5YBE2gvqennhIjPVRdvnd0"><circle vector-effect="non-scaling-stroke" cx="256" cy="256" r="256" fill="rgb(35,43,43)"/></clipPath><g clip-path="url(#_clipPath_smJLvlD3Bj5YBE2gvqennhIjPVRdvnd0)"><g><g><path d=" M 317.132 112.693 C 306.571 110.246 295.689 113.519 287.079 121.734 C 278.47 129.953 272.901 142.379 271.699 156.058 L 260.982 279.408 L 259.46 296.964 L 268.587 304.236 L 301.986 331.016 L 314.779 341.215 L 322.732 300.6 L 347.696 173.793 C 350.341 160.457 348.555 146.311 342.762 134.731 C 336.966 123.147 327.687 115.168 317.132 112.693 L 317.132 112.693 Z " fill="rgb(255,255,255)"/><path d=" M 233.392 156.279 C 231.835 137.706 222.348 121.814 208.814 115.097 C 195.277 108.38 179.959 111.971 169.127 124.395 C 158.298 136.82 153.769 155.998 157.396 174.086 L 182.565 301.323 L 195 360 L 245.699 297.941 L 244.177 280.133 L 233.392 156.279 Z " fill="rgb(255,255,255)"/><path d=" M 382.918 475.667 L 382.918 416.552 C 383.767 343.528 325.396 296.868 252.534 296 C 179.673 296.868 121.304 343.528 122.151 416.552 L 122.151 475.207 C 119.039 473.196 143.728 500.701 221 514 C 236.131 516.604 310.127 508.609 327 509 C 327 509 382.918 475.667 382.918 475.667 L 382.918 475.667 Z " fill="rgb(255,255,255)"/><path d=" M 300.908 401.489 C 293.269 401.489 287.079 392.201 287.079 380.746 C 287.079 369.288 293.269 360 300.908 360 C 308.546 360 314.739 369.288 314.739 380.746 C 314.739 392.201 308.546 401.489 300.908 401.489 L 300.908 401.489 Z " fill="rgb(44,62,80)"/><clipPath id="_clipPath_jLMn3RZd4DG7l2DRcHSM8hxXKRzuI76N"><path d=" M 300.908 401.489 C 293.269 401.489 287.079 392.201 287.079 380.746 C 287.079 369.288 293.269 360 300.908 360 C 308.546 360 314.739 369.288 314.739 380.746 C 314.739 392.201 308.546 401.489 300.908 401.489 L 300.908 401.489 Z " fill="rgb(44,62,80)"/></clipPath><g clip-path="url(#_clipPath_jLMn3RZd4DG7l2DRcHSM8hxXKRzuI76N)"><path d=" M 311.278 387.031 C 311.278 392.373 308.184 396.705 304.365 396.705 C 300.546 396.705 297.448 392.373 297.448 387.031 C 297.448 381.689 300.546 377.357 304.365 377.357 C 308.184 377.357 311.278 381.689 311.278 387.031 Z " fill="rgb(255,255,255)"/></g><path d=" M 219.561 401.489 C 211.922 401.489 205.732 392.201 205.732 380.746 C 205.732 369.288 211.922 360 219.561 360 C 227.2 360 233.392 369.288 233.392 380.746 C 233.392 392.201 227.2 401.489 219.561 401.489 L 219.561 401.489 Z " fill="rgb(44,62,80)"/><clipPath id="_clipPath_CTjK8TdezNCxAXQjrRmxpWA8jKsEKefj"><path d=" M 219.561 401.489 C 211.922 401.489 205.732 392.201 205.732 380.746 C 205.732 369.288 211.922 360 219.561 360 C 227.2 360 233.392 369.288 233.392 380.746 C 233.392 392.201 227.2 401.489 219.561 401.489 L 219.561 401.489 Z " fill="rgb(44,62,80)"/></clipPath><g clip-path="url(#_clipPath_CTjK8TdezNCxAXQjrRmxpWA8jKsEKefj)"><path d=" M 229.931 387.031 C 229.931 392.373 226.837 396.705 223.018 396.705 C 219.199 396.705 216.102 392.373 216.102 387.031 C 216.102 381.689 219.199 377.357 223.018 377.357 C 226.837 377.357 229.931 381.689 229.931 387.031 Z " fill="rgb(255,255,255)"/></g></g><g><path d=" M 432.513 411.151 C 431.88 413.27 431.092 415.323 430.154 417.291 L 427.046 423.736 L 418.104 442.145 L 412.101 454.432 L 403.143 470 C 401.402 470.859 347 504 347 504 L 364.24 432.321 L 367.536 418.7 L 372.401 398.393 L 374.084 391.375 C 374.631 389.205 375.353 387.09 376.236 385.064 C 382.524 370.383 395.912 361.771 409.238 363.839 C 410.056 363.967 410.862 364.165 411.653 364.425 C 413.2 364.742 414.702 365.257 416.135 365.966 C 431.03 372.839 438.205 392.63 432.513 411.151 L 432.513 411.151 Z " fill="rgb(247,190,140)" vector-effect="non-scaling-stroke" stroke-width="5" stroke="rgb(229,126,37)" stroke-linejoin="miter" stroke-linecap="square" stroke-miterlimit="3"/><path d=" M 415.16 369.133 L 415.16 369.133 L 415.16 369.133 L 415.16 369.133 C 414.927 369.193 414.689 369.22 414.449 369.213 C 413.306 369.18 412.323 368.395 412.039 367.289 L 406.938 347.424 C 406.586 346.053 407.413 344.656 408.784 344.304 C 410.154 343.952 411.552 344.778 411.904 346.149 L 414.782 357.357 L 419.392 342.824 C 419.82 341.472 421.263 340.722 422.615 341.149 C 423.967 341.577 424.717 343.02 424.289 344.372 L 419.451 359.619 L 428.425 352.708 C 429.548 351.869 431.137 352.087 431.992 353.197 C 432.847 354.307 432.652 355.898 431.554 356.77 L 416.212 368.584 Q 416.563 368.28 415.16 369.133 Z " fill="rgb(113,194,133)"/><path d=" M 401.712 407.522 C 400.881 408.877 398.437 409.548 395.802 409.14 C 395.361 409.073 394.925 408.972 394.508 408.84 L 371.995 402.149 L 373.091 398.884 C 373.456 397.877 373.998 396.91 374.707 396 L 398.104 402.995 C 401.084 403.884 402.694 405.907 401.712 407.522 L 401.712 407.522 Z " fill="rgb(229,126,37)"/><path d=" M 389.717 453.667 C 388.886 455.022 386.442 455.693 383.807 455.285 C 383.366 455.218 382.93 455.117 382.513 454.985 L 360 448.293 L 361.096 445.029 C 361.461 444.022 362.003 443.055 362.712 442.145 L 386.109 449.139 C 389.089 450.029 390.699 452.051 389.717 453.667 L 389.717 453.667 Z " fill="rgb(229,126,37)"/><path d=" M 393.967 423.781 C 394.785 422.417 397.221 421.722 399.86 422.104 C 400.302 422.167 400.738 422.263 401.157 422.391 L 423.736 428.858 L 422.672 432.133 C 422.317 433.144 421.785 434.116 421.085 435.034 L 397.619 428.272 C 394.631 427.412 393 425.406 393.967 423.781 L 393.967 423.781 Z " fill="rgb(229,126,37)"/></g></g></g></g></svg>